<mxfile host="app.diagrams.net" agent="Mozilla/5.0 (Windows NT 10.0; Win64; x64) AppleWebKit/537.36 (KHTML, like Gecko) Chrome/134.0.0.0 Safari/537.36" version="26.1.0">
  <diagram name="Page-1" id="xcp84mOCY_FgIuvJihpW">
    <mxGraphModel dx="1195" dy="622" grid="1" gridSize="10" guides="1" tooltips="1" connect="1" arrows="1" fold="1" page="1" pageScale="1" pageWidth="850" pageHeight="1100" math="0" shadow="0">
      <root>
        <mxCell id="0" />
        <mxCell id="1" parent="0" />
        <mxCell id="T-qWLQXWmOvn3ThyD0Ny-1" value="" style="image;aspect=fixed;perimeter=ellipsePerimeter;html=1;align=center;shadow=0;dashed=0;spacingTop=3;image=img/lib/active_directory/generic_server.svg;" vertex="1" parent="1">
          <mxGeometry x="370" y="420" width="68" height="121.43" as="geometry" />
        </mxCell>
        <mxCell id="T-qWLQXWmOvn3ThyD0Ny-2" value="" style="image;aspect=fixed;perimeter=ellipsePerimeter;html=1;align=center;shadow=0;dashed=0;spacingTop=3;image=img/lib/active_directory/generic_server.svg;" vertex="1" parent="1">
          <mxGeometry x="90" y="420" width="68" height="121.43" as="geometry" />
        </mxCell>
        <mxCell id="T-qWLQXWmOvn3ThyD0Ny-3" value="" style="image;html=1;image=img/lib/clip_art/networking/Switch_128x128.png" vertex="1" parent="1">
          <mxGeometry x="240" y="180" width="272" height="80" as="geometry" />
        </mxCell>
        <mxCell id="T-qWLQXWmOvn3ThyD0Ny-7" value="" style="image;aspect=fixed;perimeter=ellipsePerimeter;html=1;align=center;shadow=0;dashed=0;spacingTop=3;image=img/lib/active_directory/generic_server.svg;" vertex="1" parent="1">
          <mxGeometry x="610" y="410" width="68" height="121.43" as="geometry" />
        </mxCell>
        <mxCell id="T-qWLQXWmOvn3ThyD0Ny-8" value="" style="endArrow=none;html=1;rounded=0;" edge="1" parent="1">
          <mxGeometry width="50" height="50" relative="1" as="geometry">
            <mxPoint y="320" as="sourcePoint" />
            <mxPoint x="840" y="320" as="targetPoint" />
          </mxGeometry>
        </mxCell>
        <mxCell id="T-qWLQXWmOvn3ThyD0Ny-10" value="" style="endArrow=none;html=1;rounded=0;exitX=0.278;exitY=-0.002;exitDx=0;exitDy=0;exitPerimeter=0;" edge="1" parent="1" source="T-qWLQXWmOvn3ThyD0Ny-2">
          <mxGeometry width="50" height="50" relative="1" as="geometry">
            <mxPoint x="360" y="390" as="sourcePoint" />
            <mxPoint x="110" y="320" as="targetPoint" />
          </mxGeometry>
        </mxCell>
        <mxCell id="T-qWLQXWmOvn3ThyD0Ny-11" value="" style="endArrow=none;html=1;rounded=0;exitX=0.796;exitY=-0.024;exitDx=0;exitDy=0;exitPerimeter=0;" edge="1" parent="1" source="T-qWLQXWmOvn3ThyD0Ny-2">
          <mxGeometry width="50" height="50" relative="1" as="geometry">
            <mxPoint x="360" y="390" as="sourcePoint" />
            <mxPoint x="144" y="320" as="targetPoint" />
          </mxGeometry>
        </mxCell>
        <mxCell id="T-qWLQXWmOvn3ThyD0Ny-12" value="" style="endArrow=none;html=1;rounded=0;exitX=0.268;exitY=0.01;exitDx=0;exitDy=0;exitPerimeter=0;" edge="1" parent="1" source="T-qWLQXWmOvn3ThyD0Ny-1">
          <mxGeometry width="50" height="50" relative="1" as="geometry">
            <mxPoint x="360" y="390" as="sourcePoint" />
            <mxPoint x="390" y="320" as="targetPoint" />
          </mxGeometry>
        </mxCell>
        <mxCell id="T-qWLQXWmOvn3ThyD0Ny-13" value="" style="endArrow=none;html=1;rounded=0;exitX=0.725;exitY=-0.024;exitDx=0;exitDy=0;exitPerimeter=0;" edge="1" parent="1" source="T-qWLQXWmOvn3ThyD0Ny-1">
          <mxGeometry width="50" height="50" relative="1" as="geometry">
            <mxPoint x="360" y="390" as="sourcePoint" />
            <mxPoint x="420" y="320" as="targetPoint" />
          </mxGeometry>
        </mxCell>
        <mxCell id="T-qWLQXWmOvn3ThyD0Ny-14" value="" style="endArrow=none;html=1;rounded=0;exitX=0.25;exitY=0;exitDx=0;exitDy=0;" edge="1" parent="1" source="T-qWLQXWmOvn3ThyD0Ny-7">
          <mxGeometry width="50" height="50" relative="1" as="geometry">
            <mxPoint x="360" y="390" as="sourcePoint" />
            <mxPoint x="630" y="320" as="targetPoint" />
          </mxGeometry>
        </mxCell>
        <mxCell id="T-qWLQXWmOvn3ThyD0Ny-15" value="" style="endArrow=none;html=1;rounded=0;exitX=0.735;exitY=-0.01;exitDx=0;exitDy=0;exitPerimeter=0;" edge="1" parent="1" source="T-qWLQXWmOvn3ThyD0Ny-7">
          <mxGeometry width="50" height="50" relative="1" as="geometry">
            <mxPoint x="360" y="390" as="sourcePoint" />
            <mxPoint x="660" y="320" as="targetPoint" />
          </mxGeometry>
        </mxCell>
        <mxCell id="T-qWLQXWmOvn3ThyD0Ny-16" value="eno1" style="text;strokeColor=none;fillColor=none;align=left;verticalAlign=middle;spacingLeft=4;spacingRight=4;overflow=hidden;points=[[0,0.5],[1,0.5]];portConstraint=eastwest;rotatable=0;whiteSpace=wrap;html=1;" vertex="1" parent="1">
          <mxGeometry x="60" y="400" width="40" height="30" as="geometry" />
        </mxCell>
        <mxCell id="T-qWLQXWmOvn3ThyD0Ny-17" value="eno1" style="text;strokeColor=none;fillColor=none;align=left;verticalAlign=middle;spacingLeft=4;spacingRight=4;overflow=hidden;points=[[0,0.5],[1,0.5]];portConstraint=eastwest;rotatable=0;whiteSpace=wrap;html=1;" vertex="1" parent="1">
          <mxGeometry x="330" y="400" width="40" height="30" as="geometry" />
        </mxCell>
        <mxCell id="T-qWLQXWmOvn3ThyD0Ny-18" value="eno1" style="text;strokeColor=none;fillColor=none;align=left;verticalAlign=middle;spacingLeft=4;spacingRight=4;overflow=hidden;points=[[0,0.5],[1,0.5]];portConstraint=eastwest;rotatable=0;whiteSpace=wrap;html=1;" vertex="1" parent="1">
          <mxGeometry x="580" y="400" width="40" height="30" as="geometry" />
        </mxCell>
        <mxCell id="T-qWLQXWmOvn3ThyD0Ny-19" value="eno2" style="text;strokeColor=none;fillColor=none;align=left;verticalAlign=middle;spacingLeft=4;spacingRight=4;overflow=hidden;points=[[0,0.5],[1,0.5]];portConstraint=eastwest;rotatable=0;whiteSpace=wrap;html=1;" vertex="1" parent="1">
          <mxGeometry x="678" y="400" width="40" height="30" as="geometry" />
        </mxCell>
        <mxCell id="T-qWLQXWmOvn3ThyD0Ny-20" value="eno2" style="text;strokeColor=none;fillColor=none;align=left;verticalAlign=middle;spacingLeft=4;spacingRight=4;overflow=hidden;points=[[0,0.5],[1,0.5]];portConstraint=eastwest;rotatable=0;whiteSpace=wrap;html=1;" vertex="1" parent="1">
          <mxGeometry x="430" y="400" width="40" height="30" as="geometry" />
        </mxCell>
        <mxCell id="T-qWLQXWmOvn3ThyD0Ny-21" value="eno2" style="text;strokeColor=none;fillColor=none;align=left;verticalAlign=middle;spacingLeft=4;spacingRight=4;overflow=hidden;points=[[0,0.5],[1,0.5]];portConstraint=eastwest;rotatable=0;whiteSpace=wrap;html=1;" vertex="1" parent="1">
          <mxGeometry x="158" y="400" width="40" height="30" as="geometry" />
        </mxCell>
        <mxCell id="T-qWLQXWmOvn3ThyD0Ny-22" value="Gi1/0/11" style="text;strokeColor=none;fillColor=none;align=left;verticalAlign=middle;spacingLeft=4;spacingRight=4;overflow=hidden;points=[[0,0.5],[1,0.5]];portConstraint=eastwest;rotatable=0;whiteSpace=wrap;html=1;" vertex="1" parent="1">
          <mxGeometry x="49" y="320" width="62" height="30" as="geometry" />
        </mxCell>
        <mxCell id="T-qWLQXWmOvn3ThyD0Ny-23" value="Gi1/0/13" style="text;strokeColor=none;fillColor=none;align=left;verticalAlign=middle;spacingLeft=4;spacingRight=4;overflow=hidden;points=[[0,0.5],[1,0.5]];portConstraint=eastwest;rotatable=0;whiteSpace=wrap;html=1;" vertex="1" parent="1">
          <mxGeometry x="320" y="320" width="62" height="30" as="geometry" />
        </mxCell>
        <mxCell id="T-qWLQXWmOvn3ThyD0Ny-24" value="Gi1/0/15" style="text;strokeColor=none;fillColor=none;align=left;verticalAlign=middle;spacingLeft=4;spacingRight=4;overflow=hidden;points=[[0,0.5],[1,0.5]];portConstraint=eastwest;rotatable=0;whiteSpace=wrap;html=1;" vertex="1" parent="1">
          <mxGeometry x="567" y="320" width="62" height="30" as="geometry" />
        </mxCell>
        <mxCell id="T-qWLQXWmOvn3ThyD0Ny-25" value="Gi1/0/12" style="text;strokeColor=none;fillColor=none;align=left;verticalAlign=middle;spacingLeft=4;spacingRight=4;overflow=hidden;points=[[0,0.5],[1,0.5]];portConstraint=eastwest;rotatable=0;whiteSpace=wrap;html=1;" vertex="1" parent="1">
          <mxGeometry x="147" y="320" width="62" height="30" as="geometry" />
        </mxCell>
        <mxCell id="T-qWLQXWmOvn3ThyD0Ny-26" value="Gi1/0/14" style="text;strokeColor=none;fillColor=none;align=left;verticalAlign=middle;spacingLeft=4;spacingRight=4;overflow=hidden;points=[[0,0.5],[1,0.5]];portConstraint=eastwest;rotatable=0;whiteSpace=wrap;html=1;" vertex="1" parent="1">
          <mxGeometry x="425" y="320" width="62" height="30" as="geometry" />
        </mxCell>
        <mxCell id="T-qWLQXWmOvn3ThyD0Ny-27" value="Gi1/0/16" style="text;strokeColor=none;fillColor=none;align=left;verticalAlign=middle;spacingLeft=4;spacingRight=4;overflow=hidden;points=[[0,0.5],[1,0.5]];portConstraint=eastwest;rotatable=0;whiteSpace=wrap;html=1;" vertex="1" parent="1">
          <mxGeometry x="599" y="280" width="62" height="30" as="geometry" />
        </mxCell>
        <mxCell id="T-qWLQXWmOvn3ThyD0Ny-28" value="Cisco3750" style="text;html=1;align=center;verticalAlign=middle;whiteSpace=wrap;rounded=0;" vertex="1" parent="1">
          <mxGeometry x="346" y="120" width="60" height="30" as="geometry" />
        </mxCell>
        <mxCell id="T-qWLQXWmOvn3ThyD0Ny-29" value="172.16.0.0/20" style="text;html=1;align=center;verticalAlign=middle;whiteSpace=wrap;rounded=0;" vertex="1" parent="1">
          <mxGeometry x="745" y="320" width="90" height="30" as="geometry" />
        </mxCell>
        <mxCell id="T-qWLQXWmOvn3ThyD0Ny-30" value="10.10.100.0/24" style="text;html=1;align=center;verticalAlign=middle;whiteSpace=wrap;rounded=0;" vertex="1" parent="1">
          <mxGeometry x="760" y="340" width="60" height="30" as="geometry" />
        </mxCell>
        <mxCell id="T-qWLQXWmOvn3ThyD0Ny-32" value="VLAN1 :" style="text;strokeColor=none;fillColor=none;align=left;verticalAlign=middle;spacingLeft=4;spacingRight=4;overflow=hidden;points=[[0,0.5],[1,0.5]];portConstraint=eastwest;rotatable=0;whiteSpace=wrap;html=1;" vertex="1" parent="1">
          <mxGeometry x="680" y="320" width="80" height="30" as="geometry" />
        </mxCell>
        <mxCell id="T-qWLQXWmOvn3ThyD0Ny-33" value="VLAN100:&amp;nbsp;" style="text;strokeColor=none;fillColor=none;align=left;verticalAlign=middle;spacingLeft=4;spacingRight=4;overflow=hidden;points=[[0,0.5],[1,0.5]];portConstraint=eastwest;rotatable=0;whiteSpace=wrap;html=1;" vertex="1" parent="1">
          <mxGeometry x="680" y="340" width="80" height="30" as="geometry" />
        </mxCell>
        <mxCell id="T-qWLQXWmOvn3ThyD0Ny-35" value="Proxmox224" style="text;html=1;align=center;verticalAlign=middle;whiteSpace=wrap;rounded=0;" vertex="1" parent="1">
          <mxGeometry x="40" y="541.43" width="90" height="30" as="geometry" />
        </mxCell>
        <mxCell id="T-qWLQXWmOvn3ThyD0Ny-36" value="Proxmox225" style="text;html=1;align=center;verticalAlign=middle;whiteSpace=wrap;rounded=0;" vertex="1" parent="1">
          <mxGeometry x="346" y="541.43" width="90" height="30" as="geometry" />
        </mxCell>
        <mxCell id="T-qWLQXWmOvn3ThyD0Ny-37" value="Proxmox226" style="text;html=1;align=center;verticalAlign=middle;whiteSpace=wrap;rounded=0;" vertex="1" parent="1">
          <mxGeometry x="599" y="541.43" width="90" height="30" as="geometry" />
        </mxCell>
        <mxCell id="T-qWLQXWmOvn3ThyD0Ny-38" value="eno1: 172.16.9.224&lt;div&gt;eno2: 10.10.100.224&lt;/div&gt;" style="text;html=1;align=center;verticalAlign=middle;whiteSpace=wrap;rounded=0;" vertex="1" parent="1">
          <mxGeometry x="20" y="571.43" width="150" height="30" as="geometry" />
        </mxCell>
        <mxCell id="T-qWLQXWmOvn3ThyD0Ny-39" value="eno1: 172.16.9.225&amp;nbsp;&lt;div&gt;eno2: 10.10.100.225&lt;/div&gt;" style="text;html=1;align=center;verticalAlign=middle;whiteSpace=wrap;rounded=0;" vertex="1" parent="1">
          <mxGeometry x="320" y="571.43" width="150" height="30" as="geometry" />
        </mxCell>
        <mxCell id="T-qWLQXWmOvn3ThyD0Ny-40" value="eno1: 172.16.9.226&lt;div&gt;eno2: 10.10.100.226&lt;/div&gt;" style="text;html=1;align=center;verticalAlign=middle;whiteSpace=wrap;rounded=0;" vertex="1" parent="1">
          <mxGeometry x="570" y="571.43" width="150" height="30" as="geometry" />
        </mxCell>
        <mxCell id="T-qWLQXWmOvn3ThyD0Ny-41" value="&amp;nbsp;172.16.9.14 ssh admin pass&amp;nbsp;12345678aA@" style="text;html=1;align=center;verticalAlign=middle;whiteSpace=wrap;rounded=0;" vertex="1" parent="1">
          <mxGeometry x="306" y="150" width="130" height="30" as="geometry" />
        </mxCell>
        <mxCell id="T-qWLQXWmOvn3ThyD0Ny-43" value="" style="image;html=1;image=img/lib/clip_art/networking/Switch_128x128.png" vertex="1" parent="1">
          <mxGeometry y="80" width="80" height="80" as="geometry" />
        </mxCell>
        <mxCell id="T-qWLQXWmOvn3ThyD0Ny-44" value="" style="endArrow=none;html=1;rounded=0;entryX=0.25;entryY=0;entryDx=0;entryDy=0;exitX=1;exitY=0.5;exitDx=0;exitDy=0;" edge="1" parent="1" source="T-qWLQXWmOvn3ThyD0Ny-43" target="T-qWLQXWmOvn3ThyD0Ny-3">
          <mxGeometry width="50" height="50" relative="1" as="geometry">
            <mxPoint x="360" y="390" as="sourcePoint" />
            <mxPoint x="410" y="340" as="targetPoint" />
          </mxGeometry>
        </mxCell>
        <mxCell id="T-qWLQXWmOvn3ThyD0Ny-45" value="Sw công ty" style="text;html=1;align=center;verticalAlign=middle;whiteSpace=wrap;rounded=0;" vertex="1" parent="1">
          <mxGeometry x="20" y="140" width="60" height="30" as="geometry" />
        </mxCell>
        <mxCell id="T-qWLQXWmOvn3ThyD0Ny-46" value="Gi1/0/2" style="text;html=1;align=center;verticalAlign=middle;whiteSpace=wrap;rounded=0;" vertex="1" parent="1">
          <mxGeometry x="246" y="170" width="60" height="30" as="geometry" />
        </mxCell>
        <mxCell id="T-qWLQXWmOvn3ThyD0Ny-47" value="" style="image;html=1;image=img/lib/clip_art/networking/Switch_128x128.png" vertex="1" parent="1">
          <mxGeometry x="260" y="720" width="272" height="80" as="geometry" />
        </mxCell>
        <mxCell id="T-qWLQXWmOvn3ThyD0Ny-48" value="" style="image;html=1;image=img/lib/clip_art/networking/Switch_128x128.png" vertex="1" parent="1">
          <mxGeometry x="55" y="650" width="80" height="80" as="geometry" />
        </mxCell>
        <mxCell id="T-qWLQXWmOvn3ThyD0Ny-49" value="" style="endArrow=none;html=1;rounded=0;entryX=0.25;entryY=0;entryDx=0;entryDy=0;" edge="1" parent="1" target="T-qWLQXWmOvn3ThyD0Ny-47">
          <mxGeometry width="50" height="50" relative="1" as="geometry">
            <mxPoint x="140" y="690" as="sourcePoint" />
            <mxPoint x="438" y="720" as="targetPoint" />
          </mxGeometry>
        </mxCell>
        <mxCell id="T-qWLQXWmOvn3ThyD0Ny-51" value="" style="endArrow=none;html=1;rounded=0;" edge="1" parent="1">
          <mxGeometry width="50" height="50" relative="1" as="geometry">
            <mxPoint y="840" as="sourcePoint" />
            <mxPoint x="840" y="840" as="targetPoint" />
          </mxGeometry>
        </mxCell>
        <mxCell id="T-qWLQXWmOvn3ThyD0Ny-52" value="" style="image;aspect=fixed;perimeter=ellipsePerimeter;html=1;align=center;shadow=0;dashed=0;spacingTop=3;image=img/lib/active_directory/generic_server.svg;" vertex="1" parent="1">
          <mxGeometry x="381" y="950" width="68" height="121.43" as="geometry" />
        </mxCell>
        <mxCell id="T-qWLQXWmOvn3ThyD0Ny-53" value="" style="endArrow=none;html=1;rounded=0;exitX=0.431;exitY=-0.027;exitDx=0;exitDy=0;exitPerimeter=0;" edge="1" parent="1" source="T-qWLQXWmOvn3ThyD0Ny-52">
          <mxGeometry width="50" height="50" relative="1" as="geometry">
            <mxPoint x="360" y="940" as="sourcePoint" />
            <mxPoint x="410" y="840" as="targetPoint" />
          </mxGeometry>
        </mxCell>
        <mxCell id="T-qWLQXWmOvn3ThyD0Ny-54" value="Gi1/0/9" style="text;html=1;align=center;verticalAlign=middle;whiteSpace=wrap;rounded=0;" vertex="1" parent="1">
          <mxGeometry x="378" y="810" width="60" height="30" as="geometry" />
        </mxCell>
        <mxCell id="T-qWLQXWmOvn3ThyD0Ny-55" value="Eno1" style="text;html=1;align=center;verticalAlign=middle;whiteSpace=wrap;rounded=0;" vertex="1" parent="1">
          <mxGeometry x="346" y="920" width="60" height="30" as="geometry" />
        </mxCell>
        <mxCell id="T-qWLQXWmOvn3ThyD0Ny-56" value="eno1: 172.16.9.109&lt;div&gt;eno1.100: 10.10.100.109&lt;/div&gt;&lt;div&gt;eno2.200: 192.168.200.109&lt;/div&gt;" style="text;whiteSpace=wrap;html=1;" vertex="1" parent="1">
          <mxGeometry x="346" y="1071.43" width="420" height="120" as="geometry" />
        </mxCell>
        <mxCell id="T-qWLQXWmOvn3ThyD0Ny-57" value="Sw công ty" style="text;html=1;align=center;verticalAlign=middle;whiteSpace=wrap;rounded=0;" vertex="1" parent="1">
          <mxGeometry x="65" y="720" width="60" height="30" as="geometry" />
        </mxCell>
        <mxCell id="T-qWLQXWmOvn3ThyD0Ny-58" value="Cisco3750" style="text;html=1;align=center;verticalAlign=middle;whiteSpace=wrap;rounded=0;" vertex="1" parent="1">
          <mxGeometry x="452" y="700" width="60" height="30" as="geometry" />
        </mxCell>
        <mxCell id="T-qWLQXWmOvn3ThyD0Ny-59" value="172.16.0.0/20" style="text;html=1;align=center;verticalAlign=middle;whiteSpace=wrap;rounded=0;" vertex="1" parent="1">
          <mxGeometry x="610" y="810" width="90" height="30" as="geometry" />
        </mxCell>
        <mxCell id="T-qWLQXWmOvn3ThyD0Ny-60" value="10.10.100.0/24" style="text;html=1;align=center;verticalAlign=middle;whiteSpace=wrap;rounded=0;" vertex="1" parent="1">
          <mxGeometry x="629" y="840" width="60" height="30" as="geometry" />
        </mxCell>
        <mxCell id="T-qWLQXWmOvn3ThyD0Ny-61" value="192.168.200.0/24" style="text;strokeColor=none;fillColor=none;align=left;verticalAlign=middle;spacingLeft=4;spacingRight=4;overflow=hidden;points=[[0,0.5],[1,0.5]];portConstraint=eastwest;rotatable=0;whiteSpace=wrap;html=1;" vertex="1" parent="1">
          <mxGeometry x="610" y="860" width="110" height="30" as="geometry" />
        </mxCell>
        <mxCell id="T-qWLQXWmOvn3ThyD0Ny-62" value="" style="shape=cylinder3;whiteSpace=wrap;html=1;boundedLbl=1;backgroundOutline=1;size=15;" vertex="1" parent="1">
          <mxGeometry x="650" y="160" width="60" height="80" as="geometry" />
        </mxCell>
        <mxCell id="T-qWLQXWmOvn3ThyD0Ny-63" value="" style="shape=cylinder3;whiteSpace=wrap;html=1;boundedLbl=1;backgroundOutline=1;size=15;" vertex="1" parent="1">
          <mxGeometry x="718" y="160" width="60" height="80" as="geometry" />
        </mxCell>
        <mxCell id="T-qWLQXWmOvn3ThyD0Ny-64" value="" style="shape=cylinder3;whiteSpace=wrap;html=1;boundedLbl=1;backgroundOutline=1;size=15;" vertex="1" parent="1">
          <mxGeometry x="790" y="160" width="60" height="80" as="geometry" />
        </mxCell>
        <mxCell id="T-qWLQXWmOvn3ThyD0Ny-67" value="&lt;span style=&quot;color: rgb(0, 0, 0); font-family: Helvetica; font-style: normal; font-variant-ligatures: normal; font-variant-caps: normal; font-weight: 400; letter-spacing: normal; orphans: 2; text-align: center; text-indent: 0px; text-transform: none; widows: 2; word-spacing: 0px; -webkit-text-stroke-width: 0px; white-space: normal; background-color: rgb(251, 251, 251); text-decoration-thickness: initial; text-decoration-style: initial; text-decoration-color: initial; float: none; display: inline !important;&quot;&gt;&lt;font style=&quot;font-size: 9px;&quot;&gt;10.10.100.121&lt;/font&gt;&lt;/span&gt;" style="text;whiteSpace=wrap;html=1;" vertex="1" parent="1">
          <mxGeometry x="650" y="130" width="60" height="30" as="geometry" />
        </mxCell>
        <mxCell id="T-qWLQXWmOvn3ThyD0Ny-68" value="" style="endArrow=none;html=1;rounded=0;entryX=0.145;entryY=1;entryDx=0;entryDy=-4.35;entryPerimeter=0;" edge="1" parent="1" target="T-qWLQXWmOvn3ThyD0Ny-62">
          <mxGeometry width="50" height="50" relative="1" as="geometry">
            <mxPoint x="659" y="320" as="sourcePoint" />
            <mxPoint x="410" y="340" as="targetPoint" />
          </mxGeometry>
        </mxCell>
        <mxCell id="T-qWLQXWmOvn3ThyD0Ny-69" value="" style="endArrow=none;html=1;rounded=0;entryX=0.228;entryY=0.997;entryDx=0;entryDy=0;entryPerimeter=0;exitX=0.655;exitY=-0.053;exitDx=0;exitDy=0;exitPerimeter=0;" edge="1" parent="1" source="T-qWLQXWmOvn3ThyD0Ny-32" target="T-qWLQXWmOvn3ThyD0Ny-63">
          <mxGeometry width="50" height="50" relative="1" as="geometry">
            <mxPoint x="360" y="390" as="sourcePoint" />
            <mxPoint x="410" y="340" as="targetPoint" />
          </mxGeometry>
        </mxCell>
        <mxCell id="T-qWLQXWmOvn3ThyD0Ny-72" value="" style="endArrow=none;html=1;rounded=0;entryX=0.247;entryY=0.989;entryDx=0;entryDy=0;entryPerimeter=0;exitX=0.672;exitY=-0.053;exitDx=0;exitDy=0;exitPerimeter=0;" edge="1" parent="1" source="T-qWLQXWmOvn3ThyD0Ny-29" target="T-qWLQXWmOvn3ThyD0Ny-64">
          <mxGeometry width="50" height="50" relative="1" as="geometry">
            <mxPoint x="360" y="390" as="sourcePoint" />
            <mxPoint x="410" y="340" as="targetPoint" />
          </mxGeometry>
        </mxCell>
        <mxCell id="T-qWLQXWmOvn3ThyD0Ny-73" value="&lt;span style=&quot;color: rgb(0, 0, 0); font-family: Helvetica; font-style: normal; font-variant-ligatures: normal; font-variant-caps: normal; font-weight: 400; letter-spacing: normal; orphans: 2; text-align: center; text-indent: 0px; text-transform: none; widows: 2; word-spacing: 0px; -webkit-text-stroke-width: 0px; white-space: normal; background-color: rgb(251, 251, 251); text-decoration-thickness: initial; text-decoration-style: initial; text-decoration-color: initial; float: none; display: inline !important;&quot;&gt;&lt;font style=&quot;font-size: 9px;&quot;&gt;172.16.9.122&lt;/font&gt;&lt;/span&gt;" style="text;whiteSpace=wrap;html=1;" vertex="1" parent="1">
          <mxGeometry x="718" y="110" width="60" height="30" as="geometry" />
        </mxCell>
        <mxCell id="T-qWLQXWmOvn3ThyD0Ny-74" value="&lt;span style=&quot;color: rgb(0, 0, 0); font-family: Helvetica; font-style: normal; font-variant-ligatures: normal; font-variant-caps: normal; font-weight: 400; letter-spacing: normal; orphans: 2; text-align: center; text-indent: 0px; text-transform: none; widows: 2; word-spacing: 0px; -webkit-text-stroke-width: 0px; white-space: normal; background-color: rgb(251, 251, 251); text-decoration-thickness: initial; text-decoration-style: initial; text-decoration-color: initial; float: none; display: inline !important;&quot;&gt;&lt;font style=&quot;font-size: 9px;&quot;&gt;172.16.9.123&lt;/font&gt;&lt;/span&gt;" style="text;whiteSpace=wrap;html=1;" vertex="1" parent="1">
          <mxGeometry x="790" y="110" width="60" height="30" as="geometry" />
        </mxCell>
        <mxCell id="T-qWLQXWmOvn3ThyD0Ny-75" value="&lt;font style=&quot;font-size: 8px;&quot;&gt;Cephnode121&lt;/font&gt;" style="text;html=1;align=center;verticalAlign=middle;whiteSpace=wrap;rounded=0;" vertex="1" parent="1">
          <mxGeometry x="650" y="200" width="60" height="30" as="geometry" />
        </mxCell>
        <mxCell id="T-qWLQXWmOvn3ThyD0Ny-76" value="&lt;font style=&quot;font-size: 8px;&quot;&gt;Cephnode122&lt;/font&gt;" style="text;html=1;align=center;verticalAlign=middle;whiteSpace=wrap;rounded=0;" vertex="1" parent="1">
          <mxGeometry x="720" y="200" width="60" height="30" as="geometry" />
        </mxCell>
        <mxCell id="T-qWLQXWmOvn3ThyD0Ny-77" value="&lt;font style=&quot;font-size: 8px;&quot;&gt;Cephnode123&lt;/font&gt;" style="text;html=1;align=center;verticalAlign=middle;whiteSpace=wrap;rounded=0;" vertex="1" parent="1">
          <mxGeometry x="790" y="200" width="60" height="30" as="geometry" />
        </mxCell>
        <mxCell id="T-qWLQXWmOvn3ThyD0Ny-78" value="" style="endArrow=none;html=1;rounded=0;entryX=0.855;entryY=1;entryDx=0;entryDy=-4.35;entryPerimeter=0;exitX=0.275;exitY=-0.053;exitDx=0;exitDy=0;exitPerimeter=0;" edge="1" parent="1" source="T-qWLQXWmOvn3ThyD0Ny-32" target="T-qWLQXWmOvn3ThyD0Ny-62">
          <mxGeometry width="50" height="50" relative="1" as="geometry">
            <mxPoint x="360" y="390" as="sourcePoint" />
            <mxPoint x="410" y="340" as="targetPoint" />
          </mxGeometry>
        </mxCell>
        <mxCell id="T-qWLQXWmOvn3ThyD0Ny-79" value="" style="endArrow=none;html=1;rounded=0;entryX=0.745;entryY=1.032;entryDx=0;entryDy=0;entryPerimeter=0;exitX=0.197;exitY=-0.007;exitDx=0;exitDy=0;exitPerimeter=0;" edge="1" parent="1" source="T-qWLQXWmOvn3ThyD0Ny-29" target="T-qWLQXWmOvn3ThyD0Ny-63">
          <mxGeometry width="50" height="50" relative="1" as="geometry">
            <mxPoint x="360" y="390" as="sourcePoint" />
            <mxPoint x="410" y="340" as="targetPoint" />
          </mxGeometry>
        </mxCell>
        <mxCell id="T-qWLQXWmOvn3ThyD0Ny-80" value="" style="endArrow=none;html=1;rounded=0;entryX=0.718;entryY=1.023;entryDx=0;entryDy=0;entryPerimeter=0;exitX=1;exitY=0;exitDx=0;exitDy=0;" edge="1" parent="1" source="T-qWLQXWmOvn3ThyD0Ny-29" target="T-qWLQXWmOvn3ThyD0Ny-64">
          <mxGeometry width="50" height="50" relative="1" as="geometry">
            <mxPoint x="360" y="390" as="sourcePoint" />
            <mxPoint x="410" y="340" as="targetPoint" />
          </mxGeometry>
        </mxCell>
        <mxCell id="T-qWLQXWmOvn3ThyD0Ny-81" value="eno1" style="text;strokeColor=none;fillColor=none;align=left;verticalAlign=middle;spacingLeft=4;spacingRight=4;overflow=hidden;points=[[0,0.5],[1,0.5]];portConstraint=eastwest;rotatable=0;whiteSpace=wrap;html=1;" vertex="1" parent="1">
          <mxGeometry x="620" y="240" width="40" height="30" as="geometry" />
        </mxCell>
        <mxCell id="T-qWLQXWmOvn3ThyD0Ny-82" value="eno1" style="text;strokeColor=none;fillColor=none;align=left;verticalAlign=middle;spacingLeft=4;spacingRight=4;overflow=hidden;points=[[0,0.5],[1,0.5]];portConstraint=eastwest;rotatable=0;whiteSpace=wrap;html=1;" vertex="1" parent="1">
          <mxGeometry x="700" y="240" width="40" height="30" as="geometry" />
        </mxCell>
        <mxCell id="T-qWLQXWmOvn3ThyD0Ny-83" value="eno1" style="text;strokeColor=none;fillColor=none;align=left;verticalAlign=middle;spacingLeft=4;spacingRight=4;overflow=hidden;points=[[0,0.5],[1,0.5]];portConstraint=eastwest;rotatable=0;whiteSpace=wrap;html=1;" vertex="1" parent="1">
          <mxGeometry x="766" y="240" width="40" height="30" as="geometry" />
        </mxCell>
        <mxCell id="T-qWLQXWmOvn3ThyD0Ny-84" value="eno2" style="text;strokeColor=none;fillColor=none;align=left;verticalAlign=middle;spacingLeft=4;spacingRight=4;overflow=hidden;points=[[0,0.5],[1,0.5]];portConstraint=eastwest;rotatable=0;whiteSpace=wrap;html=1;" vertex="1" parent="1">
          <mxGeometry x="661" y="240" width="40" height="30" as="geometry" />
        </mxCell>
        <mxCell id="T-qWLQXWmOvn3ThyD0Ny-85" value="eno2" style="text;strokeColor=none;fillColor=none;align=left;verticalAlign=middle;spacingLeft=4;spacingRight=4;overflow=hidden;points=[[0,0.5],[1,0.5]];portConstraint=eastwest;rotatable=0;whiteSpace=wrap;html=1;" vertex="1" parent="1">
          <mxGeometry x="728" y="240" width="40" height="30" as="geometry" />
        </mxCell>
        <mxCell id="T-qWLQXWmOvn3ThyD0Ny-86" value="eno2" style="text;strokeColor=none;fillColor=none;align=left;verticalAlign=middle;spacingLeft=4;spacingRight=4;overflow=hidden;points=[[0,0.5],[1,0.5]];portConstraint=eastwest;rotatable=0;whiteSpace=wrap;html=1;" vertex="1" parent="1">
          <mxGeometry x="800" y="240" width="40" height="30" as="geometry" />
        </mxCell>
        <mxCell id="T-qWLQXWmOvn3ThyD0Ny-87" value="&lt;span style=&quot;color: rgb(0, 0, 0); font-family: Helvetica; font-style: normal; font-variant-ligatures: normal; font-variant-caps: normal; font-weight: 400; letter-spacing: normal; orphans: 2; text-align: center; text-indent: 0px; text-transform: none; widows: 2; word-spacing: 0px; -webkit-text-stroke-width: 0px; white-space: normal; background-color: rgb(251, 251, 251); text-decoration-thickness: initial; text-decoration-style: initial; text-decoration-color: initial; float: none; display: inline !important;&quot;&gt;&lt;font style=&quot;font-size: 9px;&quot;&gt;172.16.9.121&lt;/font&gt;&lt;/span&gt;" style="text;whiteSpace=wrap;html=1;" vertex="1" parent="1">
          <mxGeometry x="651" y="110" width="60" height="30" as="geometry" />
        </mxCell>
        <mxCell id="T-qWLQXWmOvn3ThyD0Ny-89" value="&lt;span style=&quot;color: rgb(0, 0, 0); font-family: Helvetica; font-style: normal; font-variant-ligatures: normal; font-variant-caps: normal; font-weight: 400; letter-spacing: normal; orphans: 2; text-align: center; text-indent: 0px; text-transform: none; widows: 2; word-spacing: 0px; -webkit-text-stroke-width: 0px; white-space: normal; background-color: rgb(251, 251, 251); text-decoration-thickness: initial; text-decoration-style: initial; text-decoration-color: initial; float: none; display: inline !important;&quot;&gt;&lt;font style=&quot;font-size: 9px;&quot;&gt;10.10.100.122&lt;/font&gt;&lt;/span&gt;" style="text;whiteSpace=wrap;html=1;" vertex="1" parent="1">
          <mxGeometry x="720" y="130" width="60" height="30" as="geometry" />
        </mxCell>
        <mxCell id="T-qWLQXWmOvn3ThyD0Ny-90" value="&lt;span style=&quot;color: rgb(0, 0, 0); font-family: Helvetica; font-style: normal; font-variant-ligatures: normal; font-variant-caps: normal; font-weight: 400; letter-spacing: normal; orphans: 2; text-align: center; text-indent: 0px; text-transform: none; widows: 2; word-spacing: 0px; -webkit-text-stroke-width: 0px; white-space: normal; background-color: rgb(251, 251, 251); text-decoration-thickness: initial; text-decoration-style: initial; text-decoration-color: initial; float: none; display: inline !important;&quot;&gt;&lt;font style=&quot;font-size: 9px;&quot;&gt;10.10.100.123&lt;/font&gt;&lt;/span&gt;" style="text;whiteSpace=wrap;html=1;" vertex="1" parent="1">
          <mxGeometry x="790" y="130" width="60" height="30" as="geometry" />
        </mxCell>
      </root>
    </mxGraphModel>
  </diagram>
</mxfile>
